<?xml version="1.0" encoding="utf-8"?>
<!-- Generator: Adobe Illustrator 20.1.0, SVG Export Plug-In . SVG Version: 6.00 Build 0)  -->
<svg version="1.1" id="Layer_1" xmlns="http://www.w3.org/2000/svg" xmlns:xlink="http://www.w3.org/1999/xlink" x="0px" y="0px"
	 viewBox="0 0 86.3 76.8" style="enable-background:new 0 0 86.3 76.8;" xml:space="preserve">
<style type="text/css">
	.st0{fill:#3097D1;}
</style>
<path class="st0" d="M7.2,32.9l-1.1-14c-0.1-1.8,0.7-3.4,2.3-4.3s3.4-0.7,4.8,0.3l9.8,7.4l20-10.9h0.1c0,0,0.1,0,0.1-0.1h0.1h0.1
	h0.1h0.1h0.1h0.1h0.1H44h0.1h0.1h0.1h0.1c0,0,0.1,0,0.1,0.1h0.1l20,10.9L74.9,15c1.4-1.1,3.3-1.2,4.8-0.3c1.6,0.9,2.4,2.5,2.3,4.3
	l-1,13.6c-1.5,0.2-2.8,0.5-3.9,0.8l1.1-14.8c0-0.4-0.2-0.5-0.3-0.6c-0.1-0.1-0.4-0.2-0.7,0l-10.1,7.6l-1,12.9
	c-0.7,0.1-1.4,0.2-2.3,0.2c-0.6,0-1.1,0-1.6-0.1L63,25.7l-17.3-9.4v16.1c-0.6-0.1-1.9-0.1-2.9-0.1c-0.3,0-0.6,0-1,0v-16l-17,9.4
	l1,12.5c-0.9,0.3-2,0.5-3.4,0.5c-0.1,0-0.2,0-0.3,0l-1-13.1L10.9,18c-0.1-0.1-0.3-0.1-0.4-0.1c-0.1,0-0.2,0-0.3,0.1
	s-0.4,0.3-0.3,0.6l1.2,15.5C10,33.6,8.7,33.2,7.2,32.9z M77.4,47.4c-0.5,0.3-1,0.6-1.5,0.9l-1,13.2c0,0.4-0.2,0.7-0.5,0.9l-10.8,8.1
	l1.5-19c-0.4,0-0.9,0-1.3,0c-0.9,0-1.7,0-2.5-0.1l-1.6,19.1l-14-12.2V45.4c-0.6-0.2-1.7-0.3-2.9-0.3c-0.3,0-0.6,0-1,0v13.2
	L28.2,70.5l-1.4-19.4c-1.2,0.2-2.4,0.3-3.8,0.4l1.5,19l-10.8-8.1c-0.3-0.2-0.5-0.6-0.5-0.9l-0.9-12.1c-1.4-0.7-2.5-1.4-3.5-2
	c-0.2-0.1-0.3-0.2-0.5-0.3l1.1,14.7c0.1,1.5,0.9,2.8,2,3.7l14.2,10.6c0,0,0,0,0.1,0s0.1,0.1,0.2,0.1H26h0.1c0,0,0,0,0.1,0
	s0.1,0,0.2,0.1l0.1,0.2c0.1,0,0.2,0.2,0.3,0.2h-0.3v-0.2l0,0c0.3,0,0.4,0,0.5,0c0,0,0.1,0,0.2,0s0.2,0,0.3-0.1c0,0,0,0,0.1,0
	s0.2-0.1,0.2-0.1l0,0c0,0,0.1,0,0.1-0.1c0.1,0,0.1-0.1,0.2-0.1l0,0l16-14.2l16,14.2l0,0c0.1,0,0.1,0.1,0.2,0.1c0,0,0.1,0,0.1,0.1
	l0,0c0.1,0,0.2,0.1,0.2,0.1l0,0c0.1,0,0.2,0.1,0.3,0.1h-0.1c0.1,0,0.1,0,0.1,0v0.1v0.2c0.3,0,0.3,0,0.3,0c0.1-0.3,0.2-0.2,0.3-0.2
	l0.1-0.1c0.1,0,0.2-0.1,0.2-0.1s0,0,0.1,0c0,0,0.1,0,0.1-0.1c0,0,0.1,0,0.1-0.1c0.1,0,0.1-0.1,0.2-0.1c0,0,0,0,0.1,0l14.2-10.7
	c1.2-0.9,1.9-2.2,2-3.7l1.3-15.8C79.1,46.3,78.3,46.8,77.4,47.4z M22.6,15c1.1,0,1.9-0.9,1.9-1.9V6.7c0-1.8,1.8-2.9,3.5-2.9h32
	c1.8,0,2.9,1.2,2.9,2.9v6.4c0,1.1,0.9,1.9,1.9,1.9c1.1,0,1.9-0.9,1.9-1.9V6.7C66.8,2.8,63.9,0,60.1,0h-32c-3.9,0-7.4,2.8-7.4,6.7
	v6.4C20.7,14.2,21.6,15,22.6,15z M8.5,41.9l1.1-3.7l-1.8-0.6C6,37,4.1,36.8,1.9,36.8l0,0c-1.1,0-1.9,0.9-1.9,1.9l0,0
	c0,1.1,0.9,1.9,1.9,1.9l0,0c1.8,0,3.4,0.2,4.8,0.7L8.5,41.9z M31.8,40.3c-0.7,0.4-1.4,0.8-2.1,1.2L28,42.4l1.8,3.4l1.7-0.9
	c0.8-0.4,1.6-0.9,2.3-1.4c1.7-1.1,3.4-2.1,5.8-2.6l1.9-0.4l-0.8-3.8l-1.8,0.5C35.7,37.8,33.6,39.1,31.8,40.3z M23.2,43.2
	c-0.2,0-0.5,0-0.7,0c-3.7,0-5.8-0.9-7.6-1.9l-1.7-0.9l-1.9,3.4l1.7,0.9c2.1,1.2,4.8,2.4,9.4,2.4c0.3,0,0.6,0,0.9,0l1.9-0.1l-0.1-3.8
	H23.2z M74.7,43.8l-1.8-3.3l-1.7,0.9c-1.7,0.9-3.8,1.8-7.5,1.8c-0.3,0-0.6,0-0.8,0L61,43.1l-0.1,3.8l1.9,0.1c0.3,0,0.6,0,1,0
	c4.6,0,7.3-1.2,9.3-2.3L74.7,43.8z M52.4,43.5c0.7,0.4,1.4,0.9,2.2,1.3l1.7,0.9l1.8-3.4l-1.7-0.9c-0.7-0.4-1.3-0.8-2-1.2
	c-1.9-1.2-4-2.5-7.2-3.1l-1.9-0.4l-0.7,3.8l1.9,0.4C49,41.4,50.6,42.5,52.4,43.5z M84.4,36.8c-2.2,0-4.1,0.3-5.9,0.8l-1.8,0.6
	l1.1,3.7l1.8-0.6c1.4-0.4,3-0.7,4.8-0.7l0,0c1.1,0,1.9-0.9,1.9-1.9l0,0C86.3,37.7,85.4,36.8,84.4,36.8L84.4,36.8z"/>
</svg>
